<?xml version="1.0" encoding="UTF-8"?>
<svg id="Layer_2" data-name="Layer 2" xmlns="http://www.w3.org/2000/svg" viewBox="0 0 482.21 84.04">
  <defs>
    <style>
      .cls-1 {
        fill: #fff;
      }

      .cls-2 {
        opacity: .55;
      }

      .cls-3 {
        fill: #d10039;
      }

      .cls-4 {
        fill: #d4003c;
      }
    </style>
  </defs>
  <g id="Layer_1-2" data-name="Layer 1">
    <g>
      <g>
        <g class="cls-2">
          <polygon class="cls-1" points="8.81 33.02 24.31 36.84 18.45 41.2 19.36 42.25 21.12 41.93 26.14 38.2 34.16 41.12 32.38 65.49 13.91 59.5 8.81 33.02"/>
          <path class="cls-1" d="M10.12,28.42s8.72,4.71,12.25,4.21,9.12-10.46,9.12-10.46l-21.37,6.26Z"/>
          <path class="cls-1" d="M30.45,35.21s3.39,4.36,13.02-.9l-6.15-7.37-6.87,8.27Z"/>
          <polygon class="cls-1" points="39.5 41.12 45.92 39.13 52.38 42.65 55.44 42.13 52.85 36.91 64.28 33.42 59.67 59.01 39.5 64.96 39.5 41.12"/>
          <path class="cls-1" d="M42.66,21.44s6.4,12.96,12.15,9.88,9.48-4.13,9.48-4.13l-21.62-5.75Z"/>
        </g>
        <path class="cls-1" d="M21.11,17.38c-2.53-1.76-4.71-2.93-6.45-4.56-4.65-4.36-3.27-10.07,2.78-12.14,4.82-1.65,10.77,.22,14.65,4.63,.71,.81,1.35,1.67,1.88,2.32,2.28-1.97,4.27-4.06,6.62-5.61,3.3-2.19,7.05-2.59,10.81-1.2,5.73,2.12,7.19,8.29,2.36,11.98-3.4,2.61-7.78,3.96-11.76,5.79-.98,.45-2.11,.57-3.58,.95,3.41,7.74,9.4,12.25,17.47,15.66-2.58,.4-4.35,.68-6.67,1.04,.96,1.73,1.82,3.3,3.17,5.73-7.97-4.11-14.07-8.96-18.1-16.85-4.36,7.65-10.2,12.92-18.26,16.88,1.24-2.29,2.11-3.89,3.09-5.7-2.13-.31-3.95-.58-6.71-.98,8.07-3.51,14.07-8.1,17.48-15.38-.17-.37-.33-.74-.5-1.11-7.41,2.2-14.83,4.4-23.12,6.85,2.72,1.73,4.76,3.04,7.49,4.78-3.55-.6-6.3-1.07-9.6-1.63,1.1,6.31,2.1,12.15,3.14,17.98,.52,2.94,1.38,5.85,1.56,8.81,.21,3.31,1.69,4.73,4.85,5.52,6.29,1.59,12.46,3.64,19.12,5.63,.81-8.94,1.58-17.49,2.35-26.04,.12-.01,.25-.02,.37-.03,1.09,8.6,2.18,17.2,3.32,26.18,6.99-2.2,13.51-4.23,20-6.35,.61-.2,1.33-.96,1.45-1.57,1.84-9.3,3.59-18.61,5.44-28.37-3.1,.25-5.8,.47-8.5,.69-.06-.14-.12-.28-.17-.41,2.3-1.18,4.6-2.35,7.76-3.96-7.67-2.42-14.59-4.6-21.73-6.86,3.96-1.88,7.54-1.76,11.34-.36,4.35,1.61,8.83,2.86,13.31,4.1,2.19,.61,2.73,1.79,2.32,3.91-2.13,10.85-4.24,21.7-6.24,32.58-.37,2-1.19,3.03-3.19,3.63-7.52,2.25-14.96,4.76-22.48,7.01-1.38,.41-3.09,.43-4.47,.03-8.18-2.37-16.28-4.97-24.45-7.37-2.11-.62-2.97-1.74-3.33-3.89C4.12,48.98,2.2,38.32,.16,27.67c-.51-2.68,.1-4.04,2.87-4.8,5.95-1.63,11.82-3.57,18.09-5.5Zm16.85-3.34c.26,.23,.52,.45,.78,.68,4.73-.84,9.44-1.95,13.2-5.17,1.17-1,2.28-3.52,1.8-4.66-.6-1.43-2.82-2.91-4.42-3.01-1.85-.12-4.49,.71-5.55,2.08-2.35,3.04-3.93,6.68-5.82,10.08Zm-8.55,1.25c.35-.43,.69-.86,1.04-1.28-1.69-3.18-3.13-6.52-5.18-9.45-.94-1.35-2.95-2.25-4.65-2.69-2.37-.62-4.77,0-5.9,2.46-1.21,2.62,.28,4.71,2.44,5.78,3.97,1.96,8.16,3.48,12.25,5.19Z"/>
        <path class="cls-4" d="M21.11,17.38c-2.53-1.76-4.71-2.93-6.45-4.56-4.65-4.36-3.27-10.07,2.78-12.14,4.82-1.65,10.77,.22,14.65,4.63,.71,.81,1.35,1.67,1.88,2.32,2.28-1.97,4.27-4.06,6.62-5.61,3.3-2.19,7.05-2.59,10.81-1.2,5.73,2.12,7.19,8.29,2.36,11.98-3.4,2.61-7.78,3.96-11.76,5.79-.98,.45-2.11,.57-3.58,.95,3.41,7.74,9.4,12.25,17.47,15.66-2.58,.4-4.35,.68-6.67,1.04,.96,1.73,1.82,3.3,3.17,5.73-7.97-4.11-14.07-8.96-18.1-16.85-4.36,7.65-10.2,12.92-18.26,16.88,1.24-2.29,2.11-3.89,3.09-5.7-2.13-.31-3.95-.58-6.71-.98,8.07-3.51,14.07-8.1,17.48-15.38-.17-.37-.33-.74-.5-1.11m8.56-4.78c.26,.23,.52,.45,.78,.68,4.73-.84,9.44-1.95,13.2-5.17,1.17-1,2.28-3.52,1.8-4.66-.6-1.43-2.82-2.91-4.42-3.01-1.85-.12-4.49,.71-5.55,2.08-2.35,3.04-3.93,6.68-5.82,10.08Zm-8.55,1.25c.35-.43,.69-.86,1.04-1.28-1.69-3.18-3.13-6.52-5.18-9.45-.94-1.35-2.95-2.25-4.65-2.69-2.37-.62-4.77,0-5.9,2.46-1.21,2.62,.28,4.71,2.44,5.78,3.97,1.96,8.16,3.48,12.25,5.19Z"/>
      </g>
      <g>
        <g>
          <path class="cls-1" d="M119.63,6.74v3.07h-16.14V63.39h-3.63V9.81h-16.14v-3.07h35.91Z"/>
          <path class="cls-1" d="M133.91,61.29c-3.28-1.83-5.85-4.45-7.71-7.87-1.86-3.42-2.78-7.41-2.78-11.98s.94-8.49,2.82-11.9c1.88-3.42,4.48-6.02,7.79-7.83,3.31-1.8,7.01-2.7,11.1-2.7s7.77,.9,11.05,2.7c3.28,1.8,5.85,4.4,7.71,7.79,1.86,3.39,2.78,7.37,2.78,11.94s-.94,8.57-2.82,11.98c-1.88,3.42-4.48,6.04-7.79,7.87-3.31,1.83-7.01,2.74-11.1,2.74s-7.77-.91-11.05-2.74Zm19.97-2.62c2.77-1.42,4.99-3.59,6.66-6.5,1.67-2.9,2.5-6.48,2.5-10.73s-.83-7.75-2.5-10.65c-1.67-2.91-3.87-5.07-6.62-6.5-2.74-1.42-5.7-2.14-8.88-2.14s-6.12,.71-8.84,2.14c-2.72,1.43-4.91,3.59-6.58,6.5-1.67,2.9-2.5,6.46-2.5,10.65s.82,7.83,2.46,10.73c1.64,2.9,3.82,5.07,6.54,6.5,2.72,1.43,5.66,2.14,8.84,2.14s6.15-.71,8.92-2.14Z"/>
          <path class="cls-1" d="M185.52,22.39c3.25-2.26,7.19-3.39,11.82-3.39,4.09,0,7.73,.92,10.93,2.74,3.2,1.83,5.7,4.44,7.5,7.83,1.8,3.39,2.7,7.34,2.7,11.86s-.9,8.49-2.7,11.9c-1.8,3.42-4.3,6.05-7.5,7.91-3.2,1.86-6.85,2.78-10.93,2.78-4.57,0-8.49-1.14-11.74-3.43-3.26-2.29-5.53-5.18-6.82-8.67v32.12h-3.63V19.57h3.63v11.54c1.24-3.55,3.48-6.46,6.74-8.71Zm26.99,8.71c-1.51-2.9-3.62-5.12-6.33-6.66-2.72-1.53-5.85-2.3-9.4-2.3s-6.46,.79-9.2,2.38c-2.74,1.59-4.9,3.85-6.46,6.78-1.56,2.93-2.34,6.31-2.34,10.13s.78,7.28,2.34,10.21c1.56,2.93,3.71,5.19,6.46,6.78,2.74,1.59,5.81,2.38,9.2,2.38s6.68-.78,9.4-2.34c2.72-1.56,4.83-3.79,6.33-6.7,1.51-2.9,2.26-6.35,2.26-10.33s-.75-7.42-2.26-10.33Z"/>
        </g>
        <g>
          <path class="cls-1" d="M422.66,62.74c-.59-.59-.89-1.34-.89-2.26s.3-1.67,.89-2.26c.59-.59,1.34-.89,2.26-.89,.86,0,1.59,.3,2.18,.89,.59,.59,.89,1.35,.89,2.26s-.3,1.67-.89,2.26c-.59,.59-1.32,.89-2.18,.89-.92,0-1.67-.29-2.26-.89Z"/>
          <path class="cls-1" d="M441.14,3.67V63.39h-3.63V3.67h3.63Z"/>
          <path class="cls-1" d="M477.2,63.39l-19.12-20.09v20.09h-3.63V3.67h3.63V39.42l18.8-19.85h5.08l-21.22,21.79,21.46,22.03h-5Z"/>
        </g>
        <g>
          <path class="cls-1" d="M271.73,26.82c-1.29-2.37-3.07-4.17-5.33-5.41-2.26-1.24-4.9-1.86-7.91-1.86-3.34,0-6.29,.75-8.88,2.26-2.58,1.51-4.6,3.66-6.05,6.46-1.45,2.8-2.18,6.03-2.18,9.68s.74,7.05,2.22,9.84c1.48,2.8,3.54,4.95,6.17,6.46,2.63,1.51,5.7,2.26,9.2,2.26,4.3,0,7.83-1.14,10.57-3.43,2.74-2.29,4.55-5.47,5.41-9.56h-19.37v-8.63h30.5v9.84c-.75,3.93-2.37,7.56-4.84,10.89-2.47,3.34-5.66,6.01-9.56,8.03-3.9,2.02-8.27,3.03-13.11,3.03-5.43,0-10.34-1.22-14.73-3.67-4.39-2.45-7.83-5.85-10.33-10.21-2.5-4.36-3.75-9.31-3.75-14.85s1.25-10.5,3.75-14.89c2.5-4.38,5.94-7.8,10.33-10.25,4.38-2.45,9.27-3.67,14.65-3.67,6.35,0,11.86,1.55,16.54,4.64,4.68,3.09,7.91,7.44,9.68,13.03h-12.99Z"/>
          <path class="cls-1" d="M305.78,21.49v44.7h-11.3V21.49h11.3Z"/>
          <path class="cls-1" d="M337.41,30.77h-7.83v35.42h-11.46V30.77h-5.08v-9.28h5.08v-2.26c0-5.49,1.56-9.52,4.68-12.1,3.12-2.58,7.83-3.79,14.12-3.63V13.02c-2.74-.05-4.65,.4-5.73,1.37-1.08,.97-1.61,2.72-1.61,5.25v1.86h7.83v9.28Z"/>
          <path class="cls-1" d="M357.91,30.77v21.63c0,1.51,.36,2.6,1.09,3.27,.73,.67,1.95,1.01,3.67,1.01h5.24v9.52h-7.1c-9.52,0-14.28-4.63-14.28-13.88V30.77h-5.33v-9.28h5.33V10.43h11.38v11.05h10.01v9.28h-10.01Z"/>
          <path class="cls-1" d="M383.32,64.94c-2.9-1.32-5.2-3.11-6.9-5.37-1.69-2.26-2.62-4.76-2.78-7.5h11.38c.21,1.72,1.06,3.15,2.54,4.28,1.48,1.13,3.32,1.69,5.53,1.69s3.83-.43,5.04-1.29c1.21-.86,1.82-1.96,1.82-3.31,0-1.45-.74-2.54-2.22-3.27-1.48-.73-3.83-1.52-7.06-2.38-3.34-.81-6.07-1.64-8.19-2.5-2.13-.86-3.95-2.18-5.49-3.95-1.53-1.78-2.3-4.17-2.3-7.18,0-2.47,.71-4.73,2.14-6.78,1.42-2.04,3.47-3.66,6.13-4.84,2.66-1.18,5.8-1.78,9.4-1.78,5.33,0,9.57,1.33,12.75,3.99,3.17,2.66,4.92,6.25,5.24,10.77h-10.81c-.16-1.78-.9-3.19-2.22-4.24-1.32-1.05-3.08-1.57-5.29-1.57-2.05,0-3.62,.38-4.72,1.13-1.1,.75-1.65,1.8-1.65,3.15,0,1.51,.75,2.65,2.26,3.43,1.51,.78,3.85,1.57,7.02,2.38,3.23,.81,5.89,1.64,7.99,2.5,2.1,.86,3.91,2.19,5.45,3.99,1.53,1.8,2.33,4.18,2.38,7.14,0,2.58-.71,4.9-2.14,6.94-1.43,2.05-3.47,3.65-6.13,4.8-2.66,1.16-5.77,1.73-9.32,1.73s-6.94-.66-9.84-1.98Z"/>
        </g>
        <path class="cls-3" d="M295.25,14.27c-1.32-1.26-1.98-2.84-1.98-4.72s.66-3.46,1.98-4.72c1.32-1.26,2.97-1.9,4.96-1.9s3.64,.63,4.96,1.9c1.32,1.26,1.98,2.84,1.98,4.72s-.66,3.46-1.98,4.72c-1.32,1.26-2.97,1.9-4.96,1.9s-3.64-.63-4.96-1.9Z"/>
      </g>
    </g>
  </g>
</svg>