<?xml version="1.0" encoding="UTF-8"?>
<svg id="Layer_2" data-name="Layer 2" xmlns="http://www.w3.org/2000/svg" viewBox="0 0 239 41.65">
  <defs>
    <style>
      .cls-1 {
        fill: #fde8e7;
      }

      .cls-2 {
        fill: #5a4178;
      }

      .cls-3 {
        fill: #513c7f;
      }

      .cls-4 {
        fill: #574285;
      }

      .cls-5 {
        fill: #ffc6d7;
      }

      .cls-6 {
        fill: #fdc3d2;
      }

      .cls-7 {
        fill: #f8c4d1;
      }

      .cls-8 {
        fill: #f9c4d6;
      }

      .cls-9 {
        fill: #d10039;
      }

      .cls-10 {
        fill: #d4003c;
      }
    </style>
  </defs>
  <g id="Layer_1-2" data-name="Layer 1">
    <g>
      <g>
        <g>
          <polygon class="cls-7" points="4.37 16.36 12.05 18.26 9.14 20.42 9.6 20.94 10.47 20.78 12.96 18.93 16.93 20.38 16.05 32.46 6.9 29.49 4.37 16.36"/>
          <path class="cls-6" d="M5.01,14.09s4.32,2.33,6.07,2.09,4.52-5.19,4.52-5.19l-10.59,3.1Z"/>
          <path class="cls-5" d="M15.09,17.45s1.68,2.16,6.45-.45l-3.05-3.65-3.4,4.1Z"/>
          <polygon class="cls-1" points="19.58 20.38 22.76 19.39 25.96 21.14 27.48 20.88 26.2 18.29 31.86 16.57 29.57 29.25 19.58 32.2 19.58 20.38"/>
          <path class="cls-8" d="M21.14,10.62s3.17,6.42,6.02,4.9,4.7-2.05,4.7-2.05l-10.72-2.85Z"/>
        </g>
        <path class="cls-2" d="M10.47,8.61c-1.25-.87-2.33-1.45-3.2-2.26-2.3-2.16-1.62-4.99,1.38-6.02,2.39-.82,5.34,.11,7.26,2.3,.35,.4,.67,.83,.93,1.15,1.13-.98,2.12-2.01,3.28-2.78,1.64-1.08,3.49-1.28,5.36-.59,2.84,1.05,3.56,4.11,1.17,5.94-1.69,1.29-3.86,1.96-5.83,2.87-.49,.22-1.05,.28-1.77,.47,1.69,3.84,4.66,6.07,8.66,7.76-1.28,.2-2.16,.34-3.31,.52,.47,.86,.9,1.63,1.57,2.84-3.95-2.04-6.98-4.44-8.97-8.35-2.16,3.79-5.05,6.4-9.05,8.37,.62-1.14,1.05-1.93,1.53-2.82-1.06-.15-1.96-.29-3.32-.49,4-1.74,6.98-4.01,8.67-7.62-.08-.18-.16-.37-.25-.55-3.67,1.09-7.35,2.18-11.46,3.4,1.35,.86,2.36,1.51,3.71,2.37-1.76-.3-3.12-.53-4.76-.81,.54,3.13,1.04,6.02,1.55,8.91,.26,1.46,.68,2.9,.77,4.37,.1,1.64,.84,2.34,2.41,2.74,3.12,.79,6.18,1.8,9.48,2.79,.4-4.43,.78-8.67,1.16-12.91,.06,0,.12-.01,.19-.02,.54,4.26,1.08,8.52,1.65,12.98,3.47-1.09,6.7-2.1,9.91-3.15,.3-.1,.66-.48,.72-.78,.91-4.61,1.78-9.22,2.7-14.06-1.54,.13-2.87,.23-4.21,.34-.03-.07-.06-.14-.09-.2,1.14-.58,2.28-1.17,3.85-1.97-3.8-1.2-7.23-2.28-10.77-3.4,1.96-.93,3.74-.87,5.62-.18,2.15,.8,4.38,1.42,6.59,2.03,1.09,.3,1.36,.89,1.15,1.94-1.06,5.38-2.1,10.76-3.09,16.15-.18,.99-.59,1.5-1.58,1.8-3.73,1.11-7.41,2.36-11.14,3.47-.68,.2-1.53,.21-2.22,.01-4.05-1.17-8.07-2.46-12.12-3.65-1.04-.31-1.47-.86-1.65-1.93C2.04,24.28,1.09,18.99,.08,13.72c-.25-1.33,.05-2,1.42-2.38,2.95-.81,5.86-1.77,8.96-2.72Zm8.35-1.65c.13,.11,.26,.22,.39,.34,2.34-.42,4.68-.97,6.54-2.56,.58-.5,1.13-1.74,.89-2.31-.3-.71-1.4-1.44-2.19-1.49-.92-.06-2.22,.35-2.75,1.03-1.16,1.51-1.95,3.31-2.88,5Zm-4.24,.62c.17-.21,.34-.42,.51-.64-.84-1.57-1.55-3.23-2.57-4.68-.47-.67-1.46-1.11-2.31-1.34-1.17-.31-2.36,0-2.92,1.22-.6,1.3,.14,2.33,1.21,2.86,1.97,.97,4.04,1.73,6.07,2.57Z"/>
        <path class="cls-10" d="M10.47,8.61c-1.25-.87-2.33-1.45-3.2-2.26-2.3-2.16-1.62-4.99,1.38-6.02,2.39-.82,5.34,.11,7.26,2.3,.35,.4,.67,.83,.93,1.15,1.13-.98,2.12-2.01,3.28-2.78,1.64-1.08,3.49-1.28,5.36-.59,2.84,1.05,3.56,4.11,1.17,5.94-1.69,1.29-3.86,1.96-5.83,2.87-.49,.22-1.05,.28-1.77,.47,1.69,3.84,4.66,6.07,8.66,7.76-1.28,.2-2.16,.34-3.31,.52,.47,.86,.9,1.63,1.57,2.84-3.95-2.04-6.98-4.44-8.97-8.35-2.16,3.79-5.05,6.4-9.05,8.37,.62-1.14,1.05-1.93,1.53-2.82-1.06-.15-1.96-.29-3.32-.49,4-1.74,6.98-4.01,8.67-7.62-.08-.18-.16-.37-.25-.55m4.24-2.37c.13,.11,.26,.22,.39,.34,2.34-.42,4.68-.97,6.54-2.56,.58-.5,1.13-1.74,.89-2.31-.3-.71-1.4-1.44-2.19-1.49-.92-.06-2.22,.35-2.75,1.03-1.16,1.51-1.95,3.31-2.88,5Zm-4.24,.62c.17-.21,.34-.42,.51-.64-.84-1.57-1.55-3.23-2.57-4.68-.47-.67-1.46-1.11-2.31-1.34-1.17-.31-2.36,0-2.92,1.22-.6,1.3,.14,2.33,1.21,2.86,1.97,.97,4.04,1.73,6.07,2.57Z"/>
      </g>
      <g>
        <g>
          <path class="cls-4" d="M59.29,3.34v1.52h-8V31.42h-1.8V4.86h-8v-1.52h17.8Z"/>
          <path class="cls-4" d="M66.37,30.38c-1.63-.91-2.9-2.21-3.82-3.9-.92-1.69-1.38-3.67-1.38-5.94s.47-4.21,1.4-5.9c.93-1.69,2.22-2.99,3.86-3.88,1.64-.89,3.47-1.34,5.5-1.34s3.85,.45,5.48,1.34c1.63,.89,2.9,2.18,3.82,3.86,.92,1.68,1.38,3.65,1.38,5.92s-.47,4.25-1.4,5.94c-.93,1.69-2.22,2.99-3.86,3.9-1.64,.91-3.47,1.36-5.5,1.36s-3.85-.45-5.48-1.36Zm9.9-1.3c1.37-.71,2.47-1.78,3.3-3.22,.83-1.44,1.24-3.21,1.24-5.32s-.41-3.84-1.24-5.28c-.83-1.44-1.92-2.51-3.28-3.22-1.36-.71-2.83-1.06-4.4-1.06s-3.03,.35-4.38,1.06c-1.35,.71-2.43,1.78-3.26,3.22-.83,1.44-1.24,3.2-1.24,5.28s.41,3.88,1.22,5.32c.81,1.44,1.89,2.51,3.24,3.22,1.35,.71,2.81,1.06,4.38,1.06s3.05-.35,4.42-1.06Z"/>
          <path class="cls-4" d="M91.95,11.1c1.61-1.12,3.57-1.68,5.86-1.68,2.03,0,3.83,.45,5.42,1.36,1.59,.91,2.83,2.2,3.72,3.88,.89,1.68,1.34,3.64,1.34,5.88s-.45,4.21-1.34,5.9c-.89,1.69-2.13,3-3.72,3.92-1.59,.92-3.39,1.38-5.42,1.38-2.27,0-4.21-.57-5.82-1.7-1.61-1.13-2.74-2.57-3.38-4.3v15.92h-1.8V9.7h1.8v5.72c.61-1.76,1.73-3.2,3.34-4.32Zm13.38,4.32c-.75-1.44-1.79-2.54-3.14-3.3-1.35-.76-2.9-1.14-4.66-1.14s-3.2,.39-4.56,1.18c-1.36,.79-2.43,1.91-3.2,3.36-.77,1.45-1.16,3.13-1.16,5.02s.39,3.61,1.16,5.06c.77,1.45,1.84,2.57,3.2,3.36,1.36,.79,2.88,1.18,4.56,1.18s3.31-.39,4.66-1.16c1.35-.77,2.39-1.88,3.14-3.32,.75-1.44,1.12-3.15,1.12-5.12s-.37-3.68-1.12-5.12Z"/>
        </g>
        <g>
          <path class="cls-4" d="M209.49,31.1c-.29-.29-.44-.67-.44-1.12s.15-.83,.44-1.12c.29-.29,.67-.44,1.12-.44,.43,0,.79,.15,1.08,.44,.29,.29,.44,.67,.44,1.12s-.15,.83-.44,1.12c-.29,.29-.65,.44-1.08,.44-.45,0-.83-.15-1.12-.44Z"/>
          <path class="cls-4" d="M218.64,1.82V31.42h-1.8V1.82h1.8Z"/>
          <path class="cls-4" d="M236.52,31.42l-9.48-9.96v9.96h-1.8V1.82h1.8V19.54l9.32-9.84h2.52l-10.52,10.8,10.64,10.92h-2.48Z"/>
        </g>
        <g>
          <path class="cls-3" d="M134.68,13.29c-.64-1.17-1.52-2.07-2.64-2.68-1.12-.61-2.43-.92-3.92-.92-1.65,0-3.12,.37-4.4,1.12-1.28,.75-2.28,1.81-3,3.2-.72,1.39-1.08,2.99-1.08,4.8s.37,3.49,1.1,4.88c.73,1.39,1.75,2.45,3.06,3.2,1.31,.75,2.83,1.12,4.56,1.12,2.13,0,3.88-.57,5.24-1.7,1.36-1.13,2.25-2.71,2.68-4.74h-9.6v-4.28h15.12v4.88c-.37,1.95-1.17,3.75-2.4,5.4-1.23,1.65-2.81,2.98-4.74,3.98-1.93,1-4.1,1.5-6.5,1.5-2.69,0-5.13-.61-7.3-1.82-2.17-1.21-3.88-2.9-5.12-5.06-1.24-2.16-1.86-4.61-1.86-7.36s.62-5.21,1.86-7.38c1.24-2.17,2.95-3.87,5.12-5.08,2.17-1.21,4.59-1.82,7.26-1.82,3.15,0,5.88,.77,8.2,2.3,2.32,1.53,3.92,3.69,4.8,6.46h-6.44Z"/>
          <path class="cls-3" d="M151.56,10.65v22.16h-5.6V10.65h5.6Z"/>
          <path class="cls-3" d="M167.23,15.25h-3.88v17.56h-5.68V15.25h-2.52v-4.6h2.52v-1.12c0-2.72,.77-4.72,2.32-6,1.55-1.28,3.88-1.88,7-1.8V6.45c-1.36-.03-2.31,.2-2.84,.68-.53,.48-.8,1.35-.8,2.6v.92h3.88v4.6Z"/>
          <path class="cls-3" d="M177.39,15.25v10.72c0,.75,.18,1.29,.54,1.62,.36,.33,.97,.5,1.82,.5h2.6v4.72h-3.52c-4.72,0-7.08-2.29-7.08-6.88V15.25h-2.64v-4.6h2.64V5.17h5.64v5.48h4.96v4.6h-4.96Z"/>
          <path class="cls-3" d="M189.99,32.19c-1.44-.65-2.58-1.54-3.42-2.66-.84-1.12-1.3-2.36-1.38-3.72h5.64c.11,.85,.53,1.56,1.26,2.12,.73,.56,1.65,.84,2.74,.84s1.9-.21,2.5-.64c.6-.43,.9-.97,.9-1.64,0-.72-.37-1.26-1.1-1.62-.73-.36-1.9-.75-3.5-1.18-1.65-.4-3.01-.81-4.06-1.24-1.05-.43-1.96-1.08-2.72-1.96-.76-.88-1.14-2.07-1.14-3.56,0-1.23,.35-2.35,1.06-3.36,.71-1.01,1.72-1.81,3.04-2.4,1.32-.59,2.87-.88,4.66-.88,2.64,0,4.75,.66,6.32,1.98,1.57,1.32,2.44,3.1,2.6,5.34h-5.36c-.08-.88-.45-1.58-1.1-2.1-.65-.52-1.53-.78-2.62-.78-1.01,0-1.79,.19-2.34,.56-.55,.37-.82,.89-.82,1.56,0,.75,.37,1.31,1.12,1.7,.75,.39,1.91,.78,3.48,1.18,1.6,.4,2.92,.81,3.96,1.24,1.04,.43,1.94,1.09,2.7,1.98,.76,.89,1.15,2.07,1.18,3.54,0,1.28-.35,2.43-1.06,3.44-.71,1.01-1.72,1.81-3.04,2.38-1.32,.57-2.86,.86-4.62,.86s-3.44-.33-4.88-.98Z"/>
        </g>
        <path class="cls-9" d="M146.34,7.07c-.65-.63-.98-1.41-.98-2.34s.33-1.71,.98-2.34c.65-.63,1.47-.94,2.46-.94s1.81,.31,2.46,.94c.65,.63,.98,1.41,.98,2.34s-.33,1.71-.98,2.34c-.65,.63-1.47,.94-2.46,.94s-1.81-.31-2.46-.94Z"/>
      </g>
    </g>
  </g>
</svg>